<svg xmlns="http://www.w3.org/2000/svg" viewBox="0 0 64 64"><path fill="#009986" d="M43 58v3H32a1 1 0 0 1-1-1v-3a1 1 0 0 0 1 1Z"/><path fill="#00b39d" d="M36 55h-5v2a1 1 0 0 0 1 1h11v-3Z"/><path fill="#3d9ae2" d="M59 44v9H23v-9a12 12 0 0 1 6.63-10.73 11.772 11.772 0 0 1 5.17-1.26L34 36l6 1h2l6-1-.8-3.99a11.962 11.962 0 0 1 9.4 4.79 11.112 11.112 0 0 1 1.29 2.2 11.324 11.324 0 0 1 1.09 4.58A2.954 2.954 0 0 1 59 44Z"/><path fill="#00ccb3" d="M35.59 53a5.26 5.26 0 0 0-.59-1 5.01 5.01 0 0 0-4-2v4a1 1 0 0 0 1 1h4a5.106 5.106 0 0 0-.41-2Z"/><path fill="#ffc477" d="M45 28v4l-4 5-4-5v-4h8z"/><path fill="#009986" d="M61 57v3a1 1 0 0 1-1 1H49v-3h11a1 1 0 0 0 1-1Z"/><path fill="#00b39d" d="M61 55v2a1 1 0 0 1-1 1H49v-3h11a1 1 0 0 0 1-1Z"/><path fill="#009986" d="M59 50.41A4.979 4.979 0 0 0 56 55h4a1 1 0 0 0 1-1v-4a5.106 5.106 0 0 0-2 .41zM60 39h-4a4.982 4.982 0 0 0 5 5v-4a1 1 0 0 0-1-1z"/><path fill="#00ccb3" d="M58.98 43.58A5.023 5.023 0 0 1 56 39H36a5 5 0 0 1-5 5v6a5.01 5.01 0 0 1 4 2 5.26 5.26 0 0 1 .59 1 5.106 5.106 0 0 1 .41 2h20a4.979 4.979 0 0 1 5-5v-6a5.036 5.036 0 0 1-2.02-.42Z"/><path fill="#ffb655" d="M45 28v3.16a9.944 9.944 0 0 1-8 0V28Z"/><path fill="#e6e7e8" d="M43 55v6h6v-6h-6z"/><path fill="#1e81ce" d="M47.2 32.01 48 36l-6 1h-1l4-5h2a1.34 1.34 0 0 1 .2.01Z"/><path fill="#ffd422" d="M46 43a3.992 3.992 0 0 0-2.12 7.38A3.872 3.872 0 0 0 46 51a4 4 0 0 0 0-8Z"/><path fill="#1e81ce" d="m37 32 4 5h-1l-6-1 .8-3.99A1.34 1.34 0 0 1 35 32Z"/><path fill="#009986" d="M32 39h4a5 5 0 0 1-5 5v-4a1 1 0 0 1 1-1Z"/><rect width="16" height="6" x="19" y="55" fill="#ffa733" rx="1"/><rect width="16" height="6" x="19" y="49" fill="#ee8700" rx="1"/><rect width="16" height="6" x="3" y="55" fill="#ee8700" rx="1"/><rect width="16" height="6" x="3" y="49" fill="#ffa733" rx="1"/><rect width="16" height="6" x="3" y="43" fill="#ee8700" rx="1"/><circle cx="12" cy="30" r="9" fill="#ffd422"/><path fill="#ffb655" d="M52 16a2 2 0 1 1-1 3.73v-3.46a2 2 0 0 1 1-.27Z"/><path fill="#ffc477" d="M51 19.73V20a10 10 0 0 1-20 0v-3s5-5 9-6c0 0 1 3 3 4a3.7 3.7 0 0 1 3-2 6.889 6.889 0 0 0 5 4Z"/><path fill="#57565c" d="M51 16.27V17a6.889 6.889 0 0 1-5-4 3.7 3.7 0 0 0-3 2c-2-1-3-4-3-4-4 1-9 6-9 6v-4a10 10 0 0 1 20 0Z"/><path fill="#ffb655" d="M31 17v2.73a2 2 0 1 1 0-3.46Z"/><path d="M35 17h2v2h-2zM45 17h2v2h-2zM45 22h-2a2 2 0 0 1-4 0h-2a4 4 0 0 0 8 0zM13 33h-2a1 1 0 0 1-1-1H8a3 3 0 0 0 3 3v1h2v-1a3 3 0 0 0 0-6h-2a1 1 0 0 1 0-2h2a1 1 0 0 1 1 1h2a3 3 0 0 0-3-3v-1h-2v1a3 3 0 0 0 0 6h2a1 1 0 0 1 0 2z"/><path d="M12 40A10 10 0 1 0 2 30a10.011 10.011 0 0 0 10 10Zm0-18a8 8 0 1 1-8 8 8.009 8.009 0 0 1 8-8Z"/><path d="M60 38h-1.5a12.241 12.241 0 0 0-1.1-1.8 13.05 13.05 0 0 0-10.134-5.188A2.593 2.593 0 0 0 47 31h-1v-1.214a11.009 11.009 0 0 0 5.95-8.793c.017 0 .033.007.05.007a3 3 0 0 0 0-6v-2a11 11 0 0 0-22 0v2a3 3 0 0 0 0 6c.017 0 .033-.006.05-.007A11.009 11.009 0 0 0 36 29.786V31h-1a2.542 2.542 0 0 0-.264.011 12.687 12.687 0 0 0-5.553 1.364A13.156 13.156 0 0 0 24.6 36.2 12.9 12.9 0 0 0 22 44v4h-2v-4a2 2 0 0 0-2-2H4a2 2 0 0 0-2 2v4a1.978 1.978 0 0 0 .278 1A1.978 1.978 0 0 0 2 50v4a1.978 1.978 0 0 0 .278 1A1.978 1.978 0 0 0 2 56v4a2 2 0 0 0 2 2h14a1.978 1.978 0 0 0 1-.278A1.978 1.978 0 0 0 20 62h40a2 2 0 0 0 2-2V40a2 2 0 0 0-2-2Zm0 11.09A6.008 6.008 0 0 0 55.09 54H36v-4a2 2 0 0 0-2-2h-2v-3.09A6.008 6.008 0 0 0 36.91 40h18.18A6.008 6.008 0 0 0 60 44.91ZM60 57H50v-1h10Zm-24-1h6v1h-6Zm8 0h4v4h-4ZM32 42.858V40h2.858A4 4 0 0 1 32 42.858Zm28 0A4 4 0 0 1 57.142 40H60ZM55.8 37.4c.144.191.269.4.4.6H42a1.021 1.021 0 0 0 .165-.014l6-1a1 1 0 0 0 .815-1.186l-.541-2.7a11.061 11.061 0 0 1 7.361 4.3ZM46.379 33l.437 2.184-3.556.592L45.481 33ZM53 18a1 1 0 0 1-1 1v-2a1 1 0 0 1 1 1ZM41 4a9.01 9.01 0 0 1 9 9v2.605a5.589 5.589 0 0 1-3.051-2.921A1 1 0 0 0 46 12a4.269 4.269 0 0 0-3.249 1.611 8.007 8.007 0 0 1-1.8-2.928 1 1 0 0 0-1.191-.653c-2.769.692-5.88 3.077-7.757 4.7V13A9.01 9.01 0 0 1 41 4ZM29 18a1 1 0 0 1 1-1v2a1 1 0 0 1-1-1Zm3 2v-2.575c.995-.946 4.42-4.066 7.423-5.2a7.742 7.742 0 0 0 3.13 3.666 1.009 1.009 0 0 0 1.339-.442 3.044 3.044 0 0 1 1.522-1.349A8.088 8.088 0 0 0 50 17.733V20a9 9 0 0 1-18 0Zm9 11a10.966 10.966 0 0 0 3-.426v1.075L41 35.4l-3-3.75v-1.076A10.966 10.966 0 0 0 41 31Zm-4.481 2 2.221 2.776-3.556-.592.437-2.184ZM24 44a10.919 10.919 0 0 1 2.2-6.6 11.152 11.152 0 0 1 3.881-3.239 10.738 10.738 0 0 1 3.481-1.061l-.542 2.7a1 1 0 0 0 .815 1.182l6 1A1.021 1.021 0 0 0 40 38h-8a2 2 0 0 0-2 2v8h-6Zm-2 6v2h2v-2h2v2h2v-2h2v2h2v-2h2v4H20v-4ZM4 54v-4h2v2h2v-2h2v2h2v-2h2v2h2v-2h2v4Zm0-10h2v2h2v-2h2v2h2v-2h2v2h2v-2h2v4H4v-4Zm0 16v-4h2v2h2v-2h2v2h2v-2h2v2h2v-2h2v4Zm29 0H20v-4h2v2h2v-2h2v2h2v-2h2v2h2v-2h2v4Zm3-1h6v1h-6Zm24 1H50v-1h10Zm-2.858-6A4 4 0 0 1 60 51.142V54Z"/><path d="M46 42a5 5 0 1 0 5 5 5.006 5.006 0 0 0-5-5Zm0 8a3 3 0 1 1 3-3 3 3 0 0 1-3 3Z"/></svg>